<?xml version="1.0" encoding="UTF-8" standalone="no"?>
<!-- Created with Inkscape (http://www.inkscape.org/) -->

<svg
   version="1.1"
   id="svg2"
   xml:space="preserve"
   width="1465.3333"
   height="962.66669"
   viewBox="0 0 1465.3333 962.66669"
   sodipodi:docname="ppVF.ai"
   xmlns:inkscape="http://www.inkscape.org/namespaces/inkscape"
   xmlns:sodipodi="http://sodipodi.sourceforge.net/DTD/sodipodi-0.dtd"
   xmlns="http://www.w3.org/2000/svg"
   xmlns:svg="http://www.w3.org/2000/svg"><defs
     id="defs6"><radialGradient
       fx="0"
       fy="0"
       cx="0"
       cy="0"
       r="1"
       gradientUnits="userSpaceOnUse"
       gradientTransform="matrix(231.10666,0,0,-231.10666,385.32129,482.54352)"
       spreadMethod="pad"
       id="radialGradient32"><stop
         style="stop-opacity:1;stop-color:#cc9900"
         offset="0"
         id="stop22" /><stop
         style="stop-opacity:1;stop-color:#785d0d"
         offset="0.4045675"
         id="stop24" /><stop
         style="stop-opacity:1;stop-color:#785d0d"
         offset="0.818436"
         id="stop26" /><stop
         style="stop-opacity:1;stop-color:#785d0d"
         offset="0.96352151"
         id="stop28" /><stop
         style="stop-opacity:1;stop-color:#785d0d"
         offset="1"
         id="stop30" /></radialGradient><clipPath
       clipPathUnits="userSpaceOnUse"
       id="clipPath42"><path
         d="M 0,722 H 1099 V 0 H 0 Z"
         id="path40" /></clipPath><radialGradient
       fx="0"
       fy="0"
       cx="0"
       cy="0"
       r="1"
       gradientUnits="userSpaceOnUse"
       gradientTransform="matrix(238.523,0,0,238.523,324.299,692.0429)"
       spreadMethod="pad"
       id="radialGradient56"><stop
         style="stop-opacity:1;stop-color:#cc9900"
         offset="0"
         id="stop46" /><stop
         style="stop-opacity:1;stop-color:#785d0d"
         offset="0.4045675"
         id="stop48" /><stop
         style="stop-opacity:1;stop-color:#785d0d"
         offset="0.818436"
         id="stop50" /><stop
         style="stop-opacity:1;stop-color:#785d0d"
         offset="0.96352151"
         id="stop52" /><stop
         style="stop-opacity:1;stop-color:#785d0d"
         offset="1"
         id="stop54" /></radialGradient><linearGradient
       x1="0"
       y1="0"
       x2="1"
       y2="0"
       gradientUnits="userSpaceOnUse"
       gradientTransform="matrix(36.867691,0,0,-36.867691,874.33038,286.80359)"
       spreadMethod="pad"
       id="linearGradient90"><stop
         style="stop-opacity:1;stop-color:#cc9900"
         offset="0"
         id="stop80" /><stop
         style="stop-opacity:1;stop-color:#785d0d"
         offset="0.71435454"
         id="stop82" /><stop
         style="stop-opacity:1;stop-color:#785d0d"
         offset="0.818436"
         id="stop84" /><stop
         style="stop-opacity:1;stop-color:#785d0d"
         offset="0.96352151"
         id="stop86" /><stop
         style="stop-opacity:1;stop-color:#785d0d"
         offset="1"
         id="stop88" /></linearGradient><clipPath
       clipPathUnits="userSpaceOnUse"
       id="clipPath100"><path
         d="M 0,722 H 1099 V 0 H 0 Z"
         id="path98" /></clipPath><linearGradient
       x1="0"
       y1="0"
       x2="1"
       y2="0"
       gradientUnits="userSpaceOnUse"
       gradientTransform="matrix(174.097,0,0,174.097,-165.3929,722.0001)"
       spreadMethod="pad"
       id="linearGradient114"><stop
         style="stop-opacity:1;stop-color:#cc9900"
         offset="0"
         id="stop104" /><stop
         style="stop-opacity:1;stop-color:#785d0d"
         offset="0.71435454"
         id="stop106" /><stop
         style="stop-opacity:1;stop-color:#785d0d"
         offset="0.818436"
         id="stop108" /><stop
         style="stop-opacity:1;stop-color:#785d0d"
         offset="0.96352151"
         id="stop110" /><stop
         style="stop-opacity:1;stop-color:#785d0d"
         offset="1"
         id="stop112" /></linearGradient><linearGradient
       x1="0"
       y1="0"
       x2="1"
       y2="0"
       gradientUnits="userSpaceOnUse"
       gradientTransform="matrix(161.828,0,0,161.828,-156.6979,722.6741)"
       spreadMethod="pad"
       id="linearGradient130"><stop
         style="stop-opacity:1;stop-color:#cc9900"
         offset="0"
         id="stop120" /><stop
         style="stop-opacity:1;stop-color:#785d0d"
         offset="0.71435454"
         id="stop122" /><stop
         style="stop-opacity:1;stop-color:#785d0d"
         offset="0.818436"
         id="stop124" /><stop
         style="stop-opacity:1;stop-color:#785d0d"
         offset="0.96352151"
         id="stop126" /><stop
         style="stop-opacity:1;stop-color:#785d0d"
         offset="1"
         id="stop128" /></linearGradient><linearGradient
       x1="0"
       y1="0"
       x2="1"
       y2="0"
       gradientUnits="userSpaceOnUse"
       gradientTransform="matrix(39.591679,0,0,-39.591679,463.35233,300.35937)"
       spreadMethod="pad"
       id="linearGradient156"><stop
         style="stop-opacity:1;stop-color:#cc9900"
         offset="0"
         id="stop146" /><stop
         style="stop-opacity:1;stop-color:#785d0d"
         offset="0.49907677"
         id="stop148" /><stop
         style="stop-opacity:1;stop-color:#785d0d"
         offset="0.818436"
         id="stop150" /><stop
         style="stop-opacity:1;stop-color:#785d0d"
         offset="0.96352151"
         id="stop152" /><stop
         style="stop-opacity:1;stop-color:#785d0d"
         offset="1"
         id="stop154" /></linearGradient><linearGradient
       x1="0"
       y1="0"
       x2="1"
       y2="0"
       gradientUnits="userSpaceOnUse"
       gradientTransform="matrix(39.652183,0,0,-39.652183,503.36478,300.32959)"
       spreadMethod="pad"
       id="linearGradient182"><stop
         style="stop-opacity:1;stop-color:#cc9900"
         offset="0"
         id="stop172" /><stop
         style="stop-opacity:1;stop-color:#785d0d"
         offset="0.49907677"
         id="stop174" /><stop
         style="stop-opacity:1;stop-color:#785d0d"
         offset="0.818436"
         id="stop176" /><stop
         style="stop-opacity:1;stop-color:#785d0d"
         offset="0.96352151"
         id="stop178" /><stop
         style="stop-opacity:1;stop-color:#785d0d"
         offset="1"
         id="stop180" /></linearGradient><linearGradient
       x1="0"
       y1="0"
       x2="1"
       y2="0"
       gradientUnits="userSpaceOnUse"
       gradientTransform="matrix(37.910397,0,0,-37.910397,544.39758,300.35937)"
       spreadMethod="pad"
       id="linearGradient208"><stop
         style="stop-opacity:1;stop-color:#cc9900"
         offset="0"
         id="stop198" /><stop
         style="stop-opacity:1;stop-color:#785d0d"
         offset="0.49907677"
         id="stop200" /><stop
         style="stop-opacity:1;stop-color:#785d0d"
         offset="0.818436"
         id="stop202" /><stop
         style="stop-opacity:1;stop-color:#785d0d"
         offset="0.96352151"
         id="stop204" /><stop
         style="stop-opacity:1;stop-color:#785d0d"
         offset="1"
         id="stop206" /></linearGradient><linearGradient
       x1="0"
       y1="0"
       x2="1"
       y2="0"
       gradientUnits="userSpaceOnUse"
       gradientTransform="matrix(2.6438456,0,0,-2.6438456,588.97626,306.03668)"
       spreadMethod="pad"
       id="linearGradient234"><stop
         style="stop-opacity:1;stop-color:#cc9900"
         offset="0"
         id="stop224" /><stop
         style="stop-opacity:1;stop-color:#785d0d"
         offset="0.49907677"
         id="stop226" /><stop
         style="stop-opacity:1;stop-color:#785d0d"
         offset="0.818436"
         id="stop228" /><stop
         style="stop-opacity:1;stop-color:#785d0d"
         offset="0.96352151"
         id="stop230" /><stop
         style="stop-opacity:1;stop-color:#785d0d"
         offset="1"
         id="stop232" /></linearGradient><linearGradient
       x1="0"
       y1="0"
       x2="1"
       y2="0"
       gradientUnits="userSpaceOnUse"
       gradientTransform="matrix(33.94463,0,0,-33.94463,600.03015,299.99908)"
       spreadMethod="pad"
       id="linearGradient260"><stop
         style="stop-opacity:1;stop-color:#cc9900"
         offset="0"
         id="stop250" /><stop
         style="stop-opacity:1;stop-color:#785d0d"
         offset="0.49907677"
         id="stop252" /><stop
         style="stop-opacity:1;stop-color:#785d0d"
         offset="0.818436"
         id="stop254" /><stop
         style="stop-opacity:1;stop-color:#785d0d"
         offset="0.96352151"
         id="stop256" /><stop
         style="stop-opacity:1;stop-color:#785d0d"
         offset="1"
         id="stop258" /></linearGradient><linearGradient
       x1="0"
       y1="0"
       x2="1"
       y2="0"
       gradientUnits="userSpaceOnUse"
       gradientTransform="matrix(32.862888,0,0,-32.862888,641.24445,300.32959)"
       spreadMethod="pad"
       id="linearGradient286"><stop
         style="stop-opacity:1;stop-color:#cc9900"
         offset="0"
         id="stop276" /><stop
         style="stop-opacity:1;stop-color:#785d0d"
         offset="0.49907677"
         id="stop278" /><stop
         style="stop-opacity:1;stop-color:#785d0d"
         offset="0.818436"
         id="stop280" /><stop
         style="stop-opacity:1;stop-color:#785d0d"
         offset="0.96352151"
         id="stop282" /><stop
         style="stop-opacity:1;stop-color:#785d0d"
         offset="1"
         id="stop284" /></linearGradient><linearGradient
       x1="0"
       y1="0"
       x2="1"
       y2="0"
       gradientUnits="userSpaceOnUse"
       gradientTransform="matrix(2.6438456,0,0,-2.6438456,682.03705,306.3071)"
       spreadMethod="pad"
       id="linearGradient312"><stop
         style="stop-opacity:1;stop-color:#cc9900"
         offset="0"
         id="stop302" /><stop
         style="stop-opacity:1;stop-color:#785d0d"
         offset="0.49907677"
         id="stop304" /><stop
         style="stop-opacity:1;stop-color:#785d0d"
         offset="0.818436"
         id="stop306" /><stop
         style="stop-opacity:1;stop-color:#785d0d"
         offset="0.96352151"
         id="stop308" /><stop
         style="stop-opacity:1;stop-color:#785d0d"
         offset="1"
         id="stop310" /></linearGradient><linearGradient
       x1="0"
       y1="0"
       x2="1"
       y2="0"
       gradientUnits="userSpaceOnUse"
       gradientTransform="matrix(38.390762,0,0,-38.390762,688.76489,300.32959)"
       spreadMethod="pad"
       id="linearGradient338"><stop
         style="stop-opacity:1;stop-color:#cc9900"
         offset="0"
         id="stop328" /><stop
         style="stop-opacity:1;stop-color:#785d0d"
         offset="0.49907677"
         id="stop330" /><stop
         style="stop-opacity:1;stop-color:#785d0d"
         offset="0.818436"
         id="stop332" /><stop
         style="stop-opacity:1;stop-color:#785d0d"
         offset="0.96352151"
         id="stop334" /><stop
         style="stop-opacity:1;stop-color:#785d0d"
         offset="1"
         id="stop336" /></linearGradient><linearGradient
       x1="0"
       y1="0"
       x2="1"
       y2="0"
       gradientUnits="userSpaceOnUse"
       gradientTransform="matrix(39.591679,0,0,-39.591679,728.71686,300.35937)"
       spreadMethod="pad"
       id="linearGradient364"><stop
         style="stop-opacity:1;stop-color:#cc9900"
         offset="0"
         id="stop354" /><stop
         style="stop-opacity:1;stop-color:#785d0d"
         offset="0.49907677"
         id="stop356" /><stop
         style="stop-opacity:1;stop-color:#785d0d"
         offset="0.818436"
         id="stop358" /><stop
         style="stop-opacity:1;stop-color:#785d0d"
         offset="0.96352151"
         id="stop360" /><stop
         style="stop-opacity:1;stop-color:#785d0d"
         offset="1"
         id="stop362" /></linearGradient><linearGradient
       x1="0"
       y1="0"
       x2="1"
       y2="0"
       gradientUnits="userSpaceOnUse"
       gradientTransform="matrix(37.910397,0,0,-37.910397,682.24426,216.79259)"
       spreadMethod="pad"
       id="linearGradient390"><stop
         style="stop-opacity:1;stop-color:#cc9900"
         offset="0"
         id="stop380" /><stop
         style="stop-opacity:1;stop-color:#785d0d"
         offset="0.49907677"
         id="stop382" /><stop
         style="stop-opacity:1;stop-color:#785d0d"
         offset="0.818436"
         id="stop384" /><stop
         style="stop-opacity:1;stop-color:#785d0d"
         offset="0.96352151"
         id="stop386" /><stop
         style="stop-opacity:1;stop-color:#785d0d"
         offset="1"
         id="stop388" /></linearGradient><linearGradient
       x1="0"
       y1="0"
       x2="1"
       y2="0"
       gradientUnits="userSpaceOnUse"
       gradientTransform="matrix(39.051723,0,0,-39.051723,724.4798,216.79259)"
       spreadMethod="pad"
       id="linearGradient416"><stop
         style="stop-opacity:1;stop-color:#cc9900"
         offset="0"
         id="stop406" /><stop
         style="stop-opacity:1;stop-color:#785d0d"
         offset="0.49907677"
         id="stop408" /><stop
         style="stop-opacity:1;stop-color:#785d0d"
         offset="0.818436"
         id="stop410" /><stop
         style="stop-opacity:1;stop-color:#785d0d"
         offset="0.96352151"
         id="stop412" /><stop
         style="stop-opacity:1;stop-color:#785d0d"
         offset="1"
         id="stop414" /></linearGradient><linearGradient
       x1="0"
       y1="0"
       x2="1"
       y2="0"
       gradientUnits="userSpaceOnUse"
       gradientTransform="matrix(19.885679,0,0,-19.885679,772.54205,217.12306)"
       spreadMethod="pad"
       id="linearGradient442"><stop
         style="stop-opacity:1;stop-color:#cc9900"
         offset="0"
         id="stop432" /><stop
         style="stop-opacity:1;stop-color:#785d0d"
         offset="0.49907677"
         id="stop434" /><stop
         style="stop-opacity:1;stop-color:#785d0d"
         offset="0.818436"
         id="stop436" /><stop
         style="stop-opacity:1;stop-color:#785d0d"
         offset="0.96352151"
         id="stop438" /><stop
         style="stop-opacity:1;stop-color:#785d0d"
         offset="1"
         id="stop440" /></linearGradient><linearGradient
       x1="0"
       y1="0"
       x2="1"
       y2="0"
       gradientUnits="userSpaceOnUse"
       gradientTransform="matrix(42.077709,0,0,-42.077709,220.11652,359.07965)"
       spreadMethod="pad"
       id="linearGradient468"><stop
         style="stop-opacity:1;stop-color:#cc9900"
         offset="0"
         id="stop458" /><stop
         style="stop-opacity:1;stop-color:#785d0d"
         offset="0.49907677"
         id="stop460" /><stop
         style="stop-opacity:1;stop-color:#785d0d"
         offset="0.818436"
         id="stop462" /><stop
         style="stop-opacity:1;stop-color:#785d0d"
         offset="0.96352151"
         id="stop464" /><stop
         style="stop-opacity:1;stop-color:#785d0d"
         offset="1"
         id="stop466" /></linearGradient><linearGradient
       x1="0"
       y1="0"
       x2="1"
       y2="0"
       gradientUnits="userSpaceOnUse"
       gradientTransform="matrix(81.5896,0,0,-81.5896,367.35538,321.61075)"
       spreadMethod="pad"
       id="linearGradient494"><stop
         style="stop-opacity:1;stop-color:#cc9900"
         offset="0"
         id="stop484" /><stop
         style="stop-opacity:1;stop-color:#785d0d"
         offset="0.49907677"
         id="stop486" /><stop
         style="stop-opacity:1;stop-color:#785d0d"
         offset="0.818436"
         id="stop488" /><stop
         style="stop-opacity:1;stop-color:#785d0d"
         offset="0.96352151"
         id="stop490" /><stop
         style="stop-opacity:1;stop-color:#785d0d"
         offset="1"
         id="stop492" /></linearGradient><linearGradient
       x1="0"
       y1="0"
       x2="1"
       y2="0"
       gradientUnits="userSpaceOnUse"
       gradientTransform="matrix(80.35566,0,0,-80.35566,157.75729,379.59659)"
       spreadMethod="pad"
       id="linearGradient520"><stop
         style="stop-opacity:1;stop-color:#cc9900"
         offset="0"
         id="stop510" /><stop
         style="stop-opacity:1;stop-color:#785d0d"
         offset="0.49907677"
         id="stop512" /><stop
         style="stop-opacity:1;stop-color:#785d0d"
         offset="0.818436"
         id="stop514" /><stop
         style="stop-opacity:1;stop-color:#785d0d"
         offset="0.96352151"
         id="stop516" /><stop
         style="stop-opacity:1;stop-color:#785d0d"
         offset="1"
         id="stop518" /></linearGradient><clipPath
       clipPathUnits="userSpaceOnUse"
       id="clipPath530"><path
         d="M 0,722 H 1099 V 0 H 0 Z"
         id="path528" /></clipPath><linearGradient
       x1="0"
       y1="0"
       x2="1"
       y2="0"
       gradientUnits="userSpaceOnUse"
       gradientTransform="matrix(76.370491,0,0,-76.370491,296.02777,283.60669)"
       spreadMethod="pad"
       id="linearGradient558"><stop
         style="stop-opacity:1;stop-color:#cc9900"
         offset="0"
         id="stop548" /><stop
         style="stop-opacity:1;stop-color:#785d0d"
         offset="0.49907677"
         id="stop550" /><stop
         style="stop-opacity:1;stop-color:#785d0d"
         offset="0.818436"
         id="stop552" /><stop
         style="stop-opacity:1;stop-color:#785d0d"
         offset="0.96352151"
         id="stop554" /><stop
         style="stop-opacity:1;stop-color:#785d0d"
         offset="1"
         id="stop556" /></linearGradient><linearGradient
       x1="0"
       y1="0"
       x2="1"
       y2="0"
       gradientUnits="userSpaceOnUse"
       gradientTransform="matrix(76.370491,0,0,-76.370491,81.855751,341.89349)"
       spreadMethod="pad"
       id="linearGradient584"><stop
         style="stop-opacity:1;stop-color:#cc9900"
         offset="0"
         id="stop574" /><stop
         style="stop-opacity:1;stop-color:#785d0d"
         offset="0.49907677"
         id="stop576" /><stop
         style="stop-opacity:1;stop-color:#785d0d"
         offset="0.818436"
         id="stop578" /><stop
         style="stop-opacity:1;stop-color:#785d0d"
         offset="0.96352151"
         id="stop580" /><stop
         style="stop-opacity:1;stop-color:#785d0d"
         offset="1"
         id="stop582" /></linearGradient><linearGradient
       x1="0"
       y1="0"
       x2="1"
       y2="0"
       gradientUnits="userSpaceOnUse"
       gradientTransform="matrix(79.29007,0,0,-79.29007,171.43079,268.99591)"
       spreadMethod="pad"
       id="linearGradient610"><stop
         style="stop-opacity:1;stop-color:#cc9900"
         offset="0"
         id="stop600" /><stop
         style="stop-opacity:1;stop-color:#785d0d"
         offset="0.49907677"
         id="stop602" /><stop
         style="stop-opacity:1;stop-color:#785d0d"
         offset="0.818436"
         id="stop604" /><stop
         style="stop-opacity:1;stop-color:#785d0d"
         offset="0.96352151"
         id="stop606" /><stop
         style="stop-opacity:1;stop-color:#785d0d"
         offset="1"
         id="stop608" /></linearGradient><linearGradient
       x1="0"
       y1="0"
       x2="1"
       y2="0"
       gradientUnits="userSpaceOnUse"
       gradientTransform="matrix(57.3097,0,0,-57.3097,259.05234,287.86505)"
       spreadMethod="pad"
       id="linearGradient636"><stop
         style="stop-opacity:1;stop-color:#cc9900"
         offset="0"
         id="stop626" /><stop
         style="stop-opacity:1;stop-color:#785d0d"
         offset="0.49907677"
         id="stop628" /><stop
         style="stop-opacity:1;stop-color:#785d0d"
         offset="0.818436"
         id="stop630" /><stop
         style="stop-opacity:1;stop-color:#785d0d"
         offset="0.96352151"
         id="stop632" /><stop
         style="stop-opacity:1;stop-color:#785d0d"
         offset="1"
         id="stop634" /></linearGradient><linearGradient
       x1="0"
       y1="0"
       x2="1"
       y2="0"
       gradientUnits="userSpaceOnUse"
       gradientTransform="matrix(120.45328,0.322958,-0.322958,-123.66877,184.36246,304.95276)"
       spreadMethod="pad"
       id="linearGradient662"><stop
         style="stop-opacity:1;stop-color:#cc9900"
         offset="0"
         id="stop652" /><stop
         style="stop-opacity:1;stop-color:#785d0d"
         offset="0.49907677"
         id="stop654" /><stop
         style="stop-opacity:1;stop-color:#785d0d"
         offset="0.818436"
         id="stop656" /><stop
         style="stop-opacity:1;stop-color:#785d0d"
         offset="0.96352151"
         id="stop658" /><stop
         style="stop-opacity:1;stop-color:#785d0d"
         offset="1"
         id="stop660" /></linearGradient><clipPath
       clipPathUnits="userSpaceOnUse"
       id="clipPath672"><path
         d="M 0,722 H 1099 V 0 H 0 Z"
         id="path670" /></clipPath><linearGradient
       x1="0"
       y1="0"
       x2="1"
       y2="0"
       gradientUnits="userSpaceOnUse"
       gradientTransform="matrix(122.344,-0.328026,-0.328026,125.61,-18.3113,805.8568)"
       spreadMethod="pad"
       id="linearGradient686"><stop
         style="stop-opacity:1;stop-color:#cc9900"
         offset="0"
         id="stop676" /><stop
         style="stop-opacity:1;stop-color:#785d0d"
         offset="0.49907677"
         id="stop678" /><stop
         style="stop-opacity:1;stop-color:#785d0d"
         offset="0.818436"
         id="stop680" /><stop
         style="stop-opacity:1;stop-color:#785d0d"
         offset="0.96352151"
         id="stop682" /><stop
         style="stop-opacity:1;stop-color:#785d0d"
         offset="1"
         id="stop684" /></linearGradient></defs><sodipodi:namedview
     id="namedview4"
     pagecolor="#ffffff"
     bordercolor="#666666"
     borderopacity="1.0"
     inkscape:pageshadow="2"
     inkscape:pageopacity="0.0"
     inkscape:pagecheckerboard="0" /><g
     id="g8"
     inkscape:groupmode="layer"
     inkscape:label="ppVF"
     transform="matrix(1.3333333,0,0,-1.3333333,0,962.66667)"><g
       id="g10"><g
         id="g12"><g
           id="g18"><g
             id="g20"><path
               d="M 413.176,518.744 C 308.363,504.121 284.566,474.407 165.958,459.551 v 0 C 122.014,454.046 85.542,452.785 61.5,452.587 v 0 c 22.016,-7.823 54.731,-16.248 94.013,-13.928 v 0 c 21.872,1.292 36.358,5.358 83.567,17.41 v 0 c 32.456,8.286 65.024,16.139 97.494,24.374 v 0 c 23.105,5.858 100.935,25.082 181.061,20.891 v 0 c 40.651,-2.126 109.898,-11.772 191.507,-55.711 v 0 c -18.486,17.414 -48.494,41.653 -90.531,59.193 v 0 c -40.024,16.701 -78.186,22.004 -114.512,22.003 v 0 c -31.709,-10e-4 -62.021,-4.043 -90.923,-8.075"
               style="fill:url(#radialGradient32);stroke:none"
               id="path34" /></g></g></g></g><g
       id="g36"><g
         id="g38"
         clip-path="url(#clipPath42)"><g
           id="g44"
           transform="translate(61.5,452.5869)"><path
             d="M 0,0 C 24.042,0.199 60.514,1.459 104.458,6.964 223.066,21.82 246.864,51.535 351.677,66.157 413.687,74.808 482.149,83.507 557.112,52.229 599.148,34.689 629.156,10.45 647.643,-6.964 566.033,36.975 496.787,46.621 456.135,48.747 376.009,52.938 298.179,33.715 275.074,27.855 242.604,19.621 210.037,11.768 177.58,3.482 130.371,-8.57 115.884,-12.637 94.013,-13.928 54.731,-16.248 22.017,-7.823 0,0 Z"
             style="fill:none;stroke:url(#radialGradient56);stroke-width:3.482;stroke-linecap:butt;stroke-linejoin:miter;stroke-miterlimit:10;stroke-dasharray:none;stroke-opacity:1"
             id="path58" /></g><g
           id="g60"
           transform="translate(1026,355.0918)"><path
             d="m 0,0 c -26.197,16.203 -67.723,37.847 -121.868,48.748 -51.709,10.41 -81.211,4.235 -181.062,-3.482 -111.131,-8.59 -166.754,-13.34 -215.881,-6.964 -42.291,5.489 -104.688,18.898 -177.579,55.711 84.107,-31.849 152.759,-39.957 198.471,-41.784 30.967,-1.237 35.432,1.492 200.212,15.669 111.576,9.601 143.773,11.421 186.285,-1.741 C -59.944,50.22 -22.94,21.478 0,0"
             style="fill:#000000;fill-opacity:1;fill-rule:nonzero;stroke:none"
             id="path62" /></g><g
           id="g64"
           transform="translate(1026,355.0918)"><path
             d="m 0,0 c -26.197,16.203 -67.723,37.847 -121.868,48.748 -51.709,10.41 -81.211,4.235 -181.062,-3.482 -111.131,-8.59 -166.754,-13.34 -215.881,-6.964 -42.291,5.489 -104.688,18.898 -177.579,55.711 84.107,-31.849 152.759,-39.957 198.471,-41.784 30.967,-1.237 35.432,1.492 200.212,15.669 111.576,9.601 143.773,11.421 186.285,-1.741 C -59.944,50.22 -22.94,21.478 0,0 Z"
             style="fill:none;stroke:#000000;stroke-width:3.482;stroke-linecap:butt;stroke-linejoin:miter;stroke-miterlimit:10;stroke-dasharray:none;stroke-opacity:1"
             id="path66" /></g></g></g><g
       id="g68"><g
         id="g70"><g
           id="g76"><g
             id="g78"><path
               d="m 874.33,286.804 c 0,-10.181 8.253,-18.434 18.434,-18.434 v 0 c 10.181,0 18.434,8.253 18.434,18.434 v 0 c 0,10.181 -8.253,18.434 -18.434,18.434 v 0 c -10.181,0 -18.434,-8.253 -18.434,-18.434 m 3.482,0 c 0,8.244 6.707,14.952 14.952,14.952 v 0 c 8.245,0 14.953,-6.708 14.953,-14.952 v 0 c 0,-8.245 -6.708,-14.953 -14.953,-14.953 v 0 c -8.245,0 -14.952,6.708 -14.952,14.953"
               style="fill:url(#linearGradient90);stroke:none"
               id="path92" /></g></g></g></g><g
       id="g94"><g
         id="g96"
         clip-path="url(#clipPath100)"><g
           id="g102"
           transform="translate(968.5479,286.4531)"><path
             d="m 0,0 c 0,-42.467 -35.076,-76.894 -78.344,-76.894 -43.268,0 -78.343,34.427 -78.343,76.894 0,42.467 35.075,76.893 78.343,76.893 C -35.076,76.893 0,42.467 0,0 Z"
             style="fill:none;stroke:url(#linearGradient114);stroke-width:17.41;stroke-linecap:butt;stroke-linejoin:miter;stroke-miterlimit:10;stroke-dasharray:none;stroke-opacity:1"
             id="path116" /></g><g
           id="g118"
           transform="translate(948.0659,285.7793)"><path
             d="m 0,0 c 0,-29.977 -24.759,-54.277 -55.302,-54.277 -30.542,0 -55.301,24.3 -55.301,54.277 0,29.977 24.759,54.277 55.301,54.277 C -24.759,54.277 0,29.977 0,0 Z"
             style="fill:none;stroke:url(#linearGradient130);stroke-width:51.225;stroke-linecap:butt;stroke-linejoin:miter;stroke-miterlimit:10;stroke-dasharray:2.987, 17.258;stroke-dashoffset:0;stroke-opacity:1"
             id="path132" /></g></g></g><g
       id="g134"><g
         id="g136"><g
           id="g142"><g
             id="g144"><path
               d="m 469.66,312.105 c -4.205,-2.804 -6.308,-6.749 -6.308,-11.835 v 0 c 0,-5.327 1.943,-9.293 5.828,-11.896 v 0 c 3.364,-2.244 7.89,-3.366 13.578,-3.366 v 0 c 4.085,0 7.669,0.583 10.753,1.744 v 0 c 3.966,1.481 6.689,4.004 8.171,7.57 v 0 h -2.763 c -1.282,-2.565 -3.565,-4.487 -6.849,-5.769 v 0 c -2.644,-1.042 -5.687,-1.561 -9.132,-1.561 v 0 c -11.055,0 -16.743,4.225 -17.062,12.676 v 0 l 37.067,0.061 v 1.681 c 0,4.927 -2.161,8.653 -6.488,11.175 v 0 c -3.524,2.082 -7.95,3.125 -13.277,3.125 v 0 c -5.367,0 -9.873,-1.202 -13.518,-3.605 m 2.223,-1.141 c 3.084,1.842 6.849,2.763 11.295,2.763 v 0 c 4.406,0 8.11,-0.901 11.115,-2.703 v 0 c 3.604,-2.123 5.467,-5.249 5.588,-9.373 v 0 h -34.005 c 0.44,4.046 2.443,7.149 6.007,9.313"
               style="fill:url(#linearGradient156);stroke:none"
               id="path158" /></g></g></g></g><g
       id="g160"><g
         id="g162"><g
           id="g168"><g
             id="g170"><path
               d="m 538.09,314.989 -14.899,-12.738 -14.599,12.738 h -3.606 l 16.523,-14.119 -18.144,-15.2 h 3.484 l 16.342,13.759 16.342,-13.759 h 3.484 l -18.085,15.2 16.523,14.119 z"
               style="fill:url(#linearGradient182);stroke:none"
               id="path184" /></g></g></g></g><g
       id="g186"><g
         id="g188"><g
           id="g194"><g
             id="g196"><path
               d="m 550.947,312.164 c -4.367,-2.803 -6.55,-6.929 -6.55,-12.375 v 0 c 0,-5.047 2.143,-8.872 6.43,-11.475 v 0 c 3.564,-2.204 8.069,-3.306 13.517,-3.306 v 0 c 3.925,0 7.429,0.642 10.514,1.924 v 0 c 3.845,1.562 6.328,4.124 7.45,7.69 v 0 l -2.463,0.781 c -0.802,-3.044 -2.885,-5.267 -6.249,-6.67 v 0 c -2.724,-1.161 -5.827,-1.741 -9.312,-1.741 v 0 c -4.726,0 -8.632,0.92 -11.716,2.763 v 0 c -3.725,2.284 -5.587,5.627 -5.587,10.034 v 0 c 0,4.726 1.883,8.31 5.648,10.754 v 0 c 3.244,2.122 7.39,3.184 12.436,3.184 v 0 c 7.849,0 12.636,-2.564 14.359,-7.69 v 0 l 2.403,0.902 c -1.122,3.243 -3.446,5.586 -6.969,7.028 v 0 c -2.764,1.161 -5.968,1.743 -9.613,1.743 v 0 c -5.848,0 -10.615,-1.182 -14.298,-3.546"
               style="fill:url(#linearGradient208);stroke:none"
               id="path210" /></g></g></g></g><g
       id="g212"><g
         id="g214"><g
           id="g220"><g
             id="g222"><path
               d="m 588.976,285.67 h 2.644 v 40.733 h -2.644 z"
               style="fill:url(#linearGradient234);stroke:none"
               id="path236" /></g></g></g></g><g
       id="g238"><g
         id="g240"><g
           id="g246"><g
             id="g248"><path
               d="m 631.331,314.989 v -15.921 c 0,-4.167 -1.542,-7.291 -4.626,-9.372 v 0 c -2.643,-1.802 -6.209,-2.704 -10.694,-2.704 v 0 c -3.646,0 -6.608,0.58 -8.892,1.741 v 0 c -2.963,1.523 -4.445,3.906 -4.445,7.151 v 0 19.105 h -2.644 v -19.164 c 0,-3.888 1.762,-6.77 5.287,-8.653 v 0 c 2.803,-1.442 6.369,-2.164 10.694,-2.164 v 0 c 7.57,0 12.677,2.124 15.32,6.37 v 0 -5.708 h 2.643 v 29.319 z"
               style="fill:url(#linearGradient260);stroke:none"
               id="path262" /></g></g></g></g><g
       id="g264"><g
         id="g266"><g
           id="g272"><g
             id="g274"><path
               d="m 648.153,314.027 c -3.445,-1.482 -5.167,-3.685 -5.167,-6.608 v 0 c 0,-4.205 3.825,-6.75 11.476,-7.63 v 0 c 5.006,-0.6 7.75,-0.941 8.231,-1.021 v 0 c 5.768,-1.002 8.65,-2.865 8.65,-5.588 v 0 c 0,-2.364 -1.642,-4.086 -4.926,-5.167 v 0 c -2.163,-0.682 -4.767,-1.021 -7.81,-1.021 v 0 c -9.732,0 -14.599,3.104 -14.599,9.312 v 0 h -2.763 c 0,-7.611 5.767,-11.415 17.302,-11.415 v 0 c 3.924,0 7.188,0.48 9.792,1.442 v 0 c 3.846,1.361 5.768,3.644 5.768,6.849 v 0 c 0,4.206 -3.765,6.808 -11.295,7.811 v 0 l -8.59,1.2 c -5.649,0.761 -8.472,2.503 -8.472,5.228 v 0 c 0,2.242 1.481,3.923 4.446,5.046 v 0 c 2.202,0.802 4.666,1.202 7.39,1.202 v 0 c 8.971,0 13.458,-2.664 13.458,-7.991 v 0 h 2.823 c 0,6.729 -5.568,10.094 -16.702,10.094 v 0 c -3.404,0 -6.408,-0.582 -9.012,-1.743"
               style="fill:url(#linearGradient286);stroke:none"
               id="path288" /></g></g></g></g><g
       id="g290"><g
         id="g292"><g
           id="g298"><g
             id="g300"><path
               d="m 682.037,326.103 v -4.145 c 0.24,-0.562 0.621,-0.842 1.141,-0.842 v 0 c 0.482,0 0.981,0.241 1.502,0.722 v 0 4.325 c -0.601,0.521 -1.102,0.781 -1.502,0.781 v 0 c -0.4,0 -0.781,-0.281 -1.141,-0.841 m 0,-40.433 h 2.643 v 29.56 h -2.643 z"
               style="fill:url(#linearGradient312);stroke:none"
               id="path314" /></g></g></g></g><g
       id="g316"><g
         id="g318"><g
           id="g324"><g
             id="g326"><path
               d="m 724.271,314.989 -15.56,-27.095 -16.822,27.095 h -3.123 L 707.39,285.67 h 2.584 l 17.182,29.319 z"
               style="fill:url(#linearGradient338);stroke:none"
               id="path340" /></g></g></g></g><g
       id="g342"><g
         id="g344"><g
           id="g350"><g
             id="g352"><path
               d="m 735.025,312.105 c -4.205,-2.804 -6.309,-6.749 -6.309,-11.835 v 0 c 0,-5.327 1.944,-9.293 5.828,-11.896 v 0 c 3.365,-2.244 7.89,-3.366 13.578,-3.366 v 0 c 4.086,0 7.669,0.583 10.754,1.744 v 0 c 3.965,1.481 6.689,4.004 8.171,7.57 v 0 h -2.763 c -1.283,-2.565 -3.566,-4.487 -6.85,-5.769 v 0 c -2.643,-1.042 -5.687,-1.561 -9.132,-1.561 v 0 c -11.054,0 -16.742,4.225 -17.061,12.676 v 0 l 37.067,0.061 v 1.681 c 0,4.927 -2.162,8.653 -6.489,11.175 v 0 c -3.524,2.082 -7.95,3.125 -13.276,3.125 v 0 c -5.368,0 -9.874,-1.202 -13.518,-3.605 m 2.223,-1.141 c 3.084,1.842 6.849,2.763 11.295,2.763 v 0 c 4.406,0 8.11,-0.901 11.115,-2.703 v 0 c 3.604,-2.123 5.466,-5.249 5.587,-9.373 v 0 h -34.004 c 0.439,4.046 2.442,7.149 6.007,9.313"
               style="fill:url(#linearGradient364);stroke:none"
               id="path366" /></g></g></g></g><g
       id="g368"><g
         id="g370"><g
           id="g376"><g
             id="g378"><path
               d="m 688.793,228.597 c -4.366,-2.803 -6.549,-6.929 -6.549,-12.376 v 0 c 0,-5.045 2.143,-8.872 6.43,-11.474 v 0 c 3.564,-2.204 8.069,-3.304 13.517,-3.304 v 0 c 3.925,0 7.428,0.64 10.514,1.922 v 0 c 3.844,1.561 6.327,4.125 7.45,7.69 v 0 l -2.464,0.781 c -0.802,-3.044 -2.883,-5.268 -6.248,-6.669 v 0 c -2.724,-1.161 -5.828,-1.741 -9.313,-1.741 v 0 c -4.725,0 -8.631,0.92 -11.715,2.762 v 0 c -3.725,2.283 -5.587,5.627 -5.587,10.033 v 0 c 0,4.726 1.883,8.311 5.647,10.754 v 0 c 3.245,2.124 7.39,3.186 12.437,3.186 v 0 c 7.849,0 12.637,-2.565 14.358,-7.69 v 0 l 2.403,0.9 c -1.121,3.245 -3.445,5.588 -6.968,7.029 v 0 c -2.764,1.162 -5.968,1.742 -9.613,1.742 v 0 c -5.849,0 -10.615,-1.181 -14.299,-3.545"
               style="fill:url(#linearGradient390);stroke:none"
               id="path392" /></g></g></g></g><g
       id="g394"><g
         id="g396"><g
           id="g402"><g
             id="g404"><path
               d="m 730.489,228.538 c -4.007,-2.804 -6.009,-6.75 -6.009,-11.836 v 0 c 0,-5.007 2.002,-8.891 6.009,-11.655 v 0 c 3.523,-2.402 7.909,-3.604 13.156,-3.604 v 0 c 8.09,0 13.838,2.563 17.243,7.69 v 0 -7.03 h 2.644 v 29.92 h -2.644 v -7.39 c -3.045,5.006 -8.691,7.509 -16.943,7.509 v 0 c -5.446,0 -9.933,-1.202 -13.456,-3.604 m 1.62,-21.929 c -3.404,2.364 -5.105,5.728 -5.105,10.093 v 0 c 0,4.326 1.701,7.731 5.105,10.214 v 0 c 3.044,2.163 6.87,3.245 11.476,3.245 v 0 c 4.927,0 8.892,-0.983 11.896,-2.945 v 0 c 3.604,-2.364 5.407,-5.867 5.407,-10.514 v 0 c 0,-4.325 -1.883,-7.711 -5.648,-10.152 v 0 c -3.205,-2.084 -7.089,-3.124 -11.655,-3.124 v 0 c -4.646,0 -8.471,1.06 -11.476,3.183"
               style="fill:url(#linearGradient416);stroke:none"
               id="path418" /></g></g></g></g><g
       id="g420"><g
         id="g422"><g
           id="g428"><g
             id="g430"><path
               d="m 780.412,229.499 c -2.523,-1.321 -4.266,-2.964 -5.226,-4.927 v 0 6.849 h -2.644 v -29.318 h 2.644 v 11.716 c 0,5.086 1.471,9.081 4.416,11.986 v 0 c 2.943,2.903 7.218,4.356 12.825,4.356 v 0 1.981 c -4.645,0 -8.65,-0.882 -12.015,-2.643"
               style="fill:url(#linearGradient442);stroke:none"
               id="path444" /></g></g></g></g><g
       id="g446"><g
         id="g448"><g
           id="g454"><g
             id="g456"><path
               d="m 238.113,372.485 c 1.286,-2.306 2.267,-4.741 2.904,-7.276 v 0 c 3.661,-14.569 -4.736,-29.705 -20.9,-37.396 v 0 c 26.1,0.855 44.582,19.575 41.8,37.396 v 0 c -1.688,10.824 -11.065,20.311 -23.802,25.136 v 0 z"
               style="fill:url(#linearGradient468);stroke:none"
               id="path470" /></g></g></g></g><g
       id="g472"><g
         id="g474"><g
           id="g480"><g
             id="g482"><path
               d="m 387.753,364.715 c 22.088,-5.289 36.093,-25.374 33.995,-44.194 v 0 c -2.497,-22.405 -27.562,-40.797 -54.392,-33.997 v 0 c 27.252,-14.072 56.779,-10.22 71.39,6.8 v 0 c 9.156,10.666 10.218,23.898 10.199,30.596 v 0 c -0.81,5.67 -3.072,15.129 -10.199,23.797 v 0 c -12.409,15.093 -31.172,17.579 -42.176,17.579 v 0 c -4.839,0 -8.178,-0.48 -8.817,-0.581"
               style="fill:url(#linearGradient494);stroke:none"
               id="path496" /></g></g></g></g><g
       id="g498"><g
         id="g500"><g
           id="g506"><g
             id="g508"><path
               d="m 175.576,422.309 c 22.249,-4.561 36.907,-24.174 35.428,-43.054 v 0 c -1.759,-22.474 -26.207,-41.681 -53.247,-35.765 v 0 c 27.7,-13.169 57.085,-8.351 71.129,9.141 v 0 c 8.801,10.961 9.428,24.221 9.188,30.915 v 0 c -0.995,5.639 -3.567,15.019 -10.974,23.448 v 0 c -12.001,13.657 -29.141,16.224 -40.327,16.225 v 0 c -6.123,0 -10.461,-0.769 -11.197,-0.91"
               style="fill:url(#linearGradient520);stroke:none"
               id="path522" /></g></g></g></g><g
       id="g524"><g
         id="g526"
         clip-path="url(#clipPath530)"><g
           id="g532"
           transform="translate(175.5757,422.3086)"><path
             d="m 0,0 c 22.25,-4.561 36.907,-24.174 35.429,-43.054 -1.76,-22.474 -26.207,-41.68 -53.247,-35.764 27.699,-13.17 57.084,-8.351 71.129,9.14 8.8,10.961 9.427,24.221 9.188,30.915 -0.996,5.64 -3.568,15.02 -10.975,23.449 C 32.955,5.817 2.081,0.398 0,0 Z"
             style="fill:none;stroke:#ffffff;stroke-width:3.4;stroke-linecap:butt;stroke-linejoin:miter;stroke-miterlimit:10;stroke-dasharray:none;stroke-opacity:1"
             id="path534" /></g></g></g><g
       id="g536"><g
         id="g538"><g
           id="g544"><g
             id="g546"><path
               d="m 296.028,365.176 v -2.749 c 4.541,-0.238 8.247,-0.878 11.115,-1.912 v 0 c 2.868,-1.035 5.378,-2.709 7.529,-5.02 v 0 c 2.55,-2.551 4.261,-5.778 5.139,-9.681 v 0 c 0.877,-3.904 1.315,-9.96 1.315,-18.165 v 0 -88.083 c 0,-8.207 -0.438,-14.265 -1.315,-18.168 v 0 c -0.878,-3.904 -2.589,-7.13 -5.139,-9.68 v 0 c -2.151,-2.23 -4.643,-3.884 -7.47,-4.96 v 0 c -2.828,-1.076 -6.554,-1.733 -11.174,-1.972 v 0 -2.749 h 76.37 v 2.749 c -5.419,0.318 -9.76,1.255 -13.027,2.809 v 0 c -3.269,1.553 -5.936,3.924 -8.007,7.111 v 0 c -1.435,2.311 -2.471,5.378 -3.108,9.202 v 0 c -0.639,3.825 -0.956,9.043 -0.956,15.658 v 0 88.083 c 0,5.497 0.239,10.356 0.717,14.58 v 0 c 0.718,5.657 2.629,10.08 5.737,13.266 v 0 c 2.229,2.311 4.761,3.985 7.59,5.02 v 0 c 2.826,1.034 6.512,1.674 11.054,1.912 v 0 2.749 z"
               style="fill:url(#linearGradient558);stroke:none"
               id="path560" /></g></g></g></g><g
       id="g562"><g
         id="g564"><g
           id="g570"><g
             id="g572"><path
               d="m 81.856,423.463 v -2.749 c 4.541,-0.239 8.247,-0.878 11.115,-1.913 v 0 c 2.868,-1.035 5.378,-2.709 7.529,-5.019 v 0 c 2.55,-2.551 4.261,-5.778 5.139,-9.68 v 0 c 0.877,-3.904 1.315,-9.962 1.315,-18.168 v 0 -88.083 c 0,-8.206 -0.438,-14.263 -1.315,-18.165 v 0 c -0.878,-3.904 -2.589,-7.131 -5.139,-9.682 v 0 c -2.151,-2.231 -4.643,-3.884 -7.47,-4.959 v 0 c -2.828,-1.075 -6.554,-1.734 -11.174,-1.971 v 0 -2.75 h 76.37 v 2.75 c -5.419,0.315 -9.76,1.254 -13.027,2.808 v 0 c -3.268,1.554 -5.936,3.924 -8.008,7.111 v 0 c -1.434,2.311 -2.469,5.378 -3.107,9.202 v 0 c -0.639,3.824 -0.956,9.042 -0.956,15.656 v 0 88.083 c 0,5.498 0.239,10.357 0.717,14.581 v 0 c 0.717,5.658 2.629,10.079 5.737,13.267 v 0 c 2.229,2.31 4.76,3.984 7.589,5.019 v 0 c 2.827,1.035 6.514,1.674 11.055,1.913 v 0 2.749 z"
               style="fill:url(#linearGradient584);stroke:none"
               id="path586" /></g></g></g></g><g
       id="g588"><g
         id="g590"><g
           id="g596"><g
             id="g598"><path
               d="m 183.779,300.617 c -11.984,-13.73 -17.131,-36.488 -6.799,-54.392 v 0 c 8.494,-14.719 23.472,-19.265 27.197,-20.398 v 0 c 2.431,-0.739 20.042,-5.797 37.395,3.399 v 0 c 0.892,0.474 3.113,1.835 5.271,3.318 v 0 c 2.309,1.585 4.475,3.035 3.728,3.165 v 0 c -0.747,0.13 -6.51,9.005 -7.441,9.142 v 0 c -0.929,0.137 -7.952,-2.963 -15.156,-5.425 v 0 c -8.782,-3.002 -19.856,-1.71 -27.197,3.399 v 0 c -9.631,6.704 -11.161,18.813 -11.948,25.037 v 0 c -2.908,23.017 11.024,41.142 15.348,46.354 v 0 c -4.984,-1.76 -13.356,-5.531 -20.398,-13.599"
               style="fill:url(#linearGradient610);stroke:none"
               id="path612" /></g></g></g></g><g
       id="g614"><g
         id="g616"><g
           id="g622"><g
             id="g624"><path
               d="m 268.768,324.414 c 4.034,-1.336 10.267,-4.165 13.599,-10.198 v 0 c 5.887,-10.663 -1.353,-23.979 -6.8,-33.997 v 0 c -2.433,-4.475 -7.746,-14.246 -16.515,-23.217 v 0 l 4.144,-5.687 c 11.184,15.678 18.554,33.042 22.57,42.503 v 0 c 0.083,0.197 2.591,6.105 6.799,13.599 v 0 c 2.976,5.299 4.511,7.993 6.799,10.198 v 0 c 2.128,2.051 7.172,6.043 16.998,6.799 v 0 z"
               style="fill:url(#linearGradient636);stroke:none"
               id="path638" /></g></g></g></g><g
       id="g640"><g
         id="g642"><g
           id="g648"><g
             id="g650"><path
               d="m 187.999,374.327 c -11.474,-22.831 7.118,-52.809 29.364,-87.68 v 0 c 22.952,-35.979 44.352,-69.525 66.498,-65.293 v 0 c 9.39,1.796 16.182,9.859 20.781,17.493 v 0 c -4.695,-2.556 -17.083,-8.459 -28.924,-3.643 v 0 c -5.127,2.086 -7.852,5.336 -17.25,18.015 v 0 c -12.455,16.806 -18.683,25.209 -25.072,35.093 v 0 c -6.504,10.063 -12.111,18.736 -19.109,31.241 v 0 c -16.913,30.227 -17.725,39.551 -17.823,44.152 v 0 c -0.235,11.059 3.127,20.05 5.71,25.512 v 0 c -4.689,-2.906 -10.494,-7.567 -14.175,-14.89"
               style="fill:url(#linearGradient662);stroke:none"
               id="path664" /></g></g></g></g><g
       id="g666"><g
         id="g668"
         clip-path="url(#clipPath672)"><g
           id="g674"
           transform="translate(202.1743,389.2168)"><path
             d="m 0,0 c -4.689,-2.906 -10.494,-7.566 -14.175,-14.89 -11.474,-22.831 7.118,-52.809 29.363,-87.679 22.953,-35.98 44.353,-69.526 66.499,-65.293 9.39,1.795 16.181,9.858 20.781,17.493 -4.695,-2.557 -17.083,-8.459 -28.925,-3.644 -5.126,2.085 -7.852,5.336 -17.249,18.016 -12.455,16.806 -18.683,25.209 -25.072,35.093 -6.505,10.062 -12.112,18.736 -19.109,31.24 C -4.8,-39.437 -5.613,-30.113 -5.71,-25.512 -5.945,-14.452 -2.583,-5.462 0,0 Z"
             style="fill:none;stroke:url(#linearGradient686);stroke-width:1.077;stroke-linecap:butt;stroke-linejoin:miter;stroke-miterlimit:10;stroke-dasharray:none;stroke-opacity:1"
             id="path688" /></g></g></g></g></svg>
